<svg id="Ebene_1" data-name="Ebene 1" xmlns="http://www.w3.org/2000/svg" viewBox="0 0 512 512"><defs><style>.cls-1{fill:#fff;}</style></defs><title>Bazio</title><path class="cls-1" d="M115,512c-9.5,0-14.92-5.42-14.92-11.53,0-14.24,29.16-29.84,29.16-57v-375c0-27.12-29.16-42.72-29.16-57C100,5.42,105.45,0,115,0H320.42c50.19,0,73.92,23.74,73.92,65.1V168.86c0,24.41-22.38,40.69-35.94,52.21C376.71,234,412,253.63,412,280.75v179c0,34.59-29.83,52.22-64.42,52.22ZM220.06,74.6V219l71.88-44.76c6.78-4.74,11.53-11.53,11.53-17.63V83.41c0-7.46-1.36-8.81-9.49-8.81Zm91.55,362.8c6.78,0,9.49-2.71,9.49-9.49V312.62c0-9.49-42-40-42-40L227.52,307.2c-5.43,4.07-7.46,6.78-7.46,11.53V437.4Z"/></svg>