<svg id="Ebene_1" data-name="Ebene 1" xmlns="http://www.w3.org/2000/svg" viewBox="0 0 512 512"><defs><style>.cls-1{fill:#fff;}</style></defs><title>Delete</title><path class="cls-1" d="M464,96H432V464a47.07,47.07,0,0,1-3.75,18.75,47.75,47.75,0,0,1-25.5,25.5A47.14,47.14,0,0,1,384,512H128a47.07,47.07,0,0,1-18.75-3.75,47.75,47.75,0,0,1-25.5-25.5A47.07,47.07,0,0,1,80,464V96H48V64H176V32a31,31,0,0,1,2.5-12.5,32.68,32.68,0,0,1,17-17A31.11,31.11,0,0,1,208,0h96a31.14,31.14,0,0,1,12.5,2.5,32.59,32.59,0,0,1,17,17A31.14,31.14,0,0,1,336,32V64H464Zm-64,0H112V464a16.22,16.22,0,0,0,16,16H384a16.22,16.22,0,0,0,16-16ZM208,416H176V160h32Zm0-352h96V32H208Zm64,352H240V160h32Zm64,0H304V160h32Z"/></svg>