<svg id="Ebene_1" data-name="Ebene 1" xmlns="http://www.w3.org/2000/svg" viewBox="0 0 512 512"><defs><style>.cls-1{fill:#fff;}</style></defs><title>Edit</title><path class="cls-1" d="M512,83.75a84.93,84.93,0,0,1-6.25,32,81.8,81.8,0,0,1-18.25,27.5L158.25,472.5,0,512,39.5,353.75,368.75,24.5a81.8,81.8,0,0,1,27.5-18.25,84.93,84.93,0,0,1,32-6.25,80.64,80.64,0,0,1,32.5,6.63,84.68,84.68,0,0,1,44.63,44.62A80.8,80.8,0,0,1,512,83.75ZM44,468l82.25-20.5A80.64,80.64,0,0,0,64.5,385.75ZM81.5,357A113.88,113.88,0,0,1,155,430.5L425.25,160,352,86.75ZM448,137.25q6.24-6.24,12-11.75a89.05,89.05,0,0,0,10.25-11.62,53.65,53.65,0,0,0,7.13-13.25A48,48,0,0,0,480,84a49.41,49.41,0,0,0-4.12-20.12,53.71,53.71,0,0,0-27.75-27.75A49.46,49.46,0,0,0,428,32a48,48,0,0,0-16.62,2.63,53.44,53.44,0,0,0-13.25,7.12A88.48,88.48,0,0,0,386.5,52q-5.5,5.76-11.75,12Z"/></svg>