<svg id="Ebene_1" data-name="Ebene 1" xmlns="http://www.w3.org/2000/svg" xmlns:xlink="http://www.w3.org/1999/xlink" viewBox="0 0 384 384"><defs><style>.cls-1{fill:none;}.cls-2{clip-path:url(#clip-path);}.cls-3{fill:#fff;}</style><clipPath id="clip-path"><rect class="cls-1" width="384" height="384"/></clipPath></defs><g class="cls-2"><path class="cls-3" d="M374,326.5,223.44,175.92,47.52,0H33.77L31,7.13C23.55,26,20.39,45.22,21.81,62.82c1.62,20.06,9.24,37.43,22,50.24L181.18,250.39l18.12-18.12,127,142c12.63,12.63,34.37,13.38,47.75,0a33.79,33.79,0,0,0,0-47.75Zm0,0"/><path class="cls-3" d="M117.55,218.58,10,326.14a33.79,33.79,0,0,0,0,47.75c12.5,12.5,34.14,13.61,47.75,0L165.3,266.33Zm0,0"/></g><path class="cls-3" d="M367.69,63.94l-61,61L290.76,109l61-61L335.86,32.1l-61,61L258.93,77.2l61-61L304,.27,224.44,79.85a56.22,56.22,0,0,0-16.37,36.4,32.68,32.68,0,0,1-2.3,10.16l51.69,51.7a32.76,32.76,0,0,1,10.17-2.31A56.16,56.16,0,0,0,304,159.44L383.6,79.86Zm0,0"/></svg>