<svg id="Ebene_1" data-name="Ebene 1" xmlns="http://www.w3.org/2000/svg" viewBox="0 0 512 512"><defs><style>.cls-1{fill:#fff;}</style></defs><title>Hidden</title><path class="cls-1" d="M377,297.79c.39-1.13.78-2.26,1.14-3.41a128.37,128.37,0,0,0,0-76.75A124.75,124.75,0,0,0,361,182.75a295,295,0,0,1,56.75,31.63,433.88,433.88,0,0,1,50,41.62,434,434,0,0,1-50,41.63,295.63,295.63,0,0,1-25,15.93L416,336.76a375.48,375.48,0,0,0,42.68-29.88A454,454,0,0,0,512,256a475.28,475.28,0,0,0-53.37-50.75,368.65,368.65,0,0,0-61.5-40.62A339.79,339.79,0,0,0,329,137.75a279,279,0,0,0-118.15-6.09Z"/><path class="cls-1" d="M165.64,143,26.9,4.27,4.27,26.9,133.11,155.74q-9.23,4.17-18.23,8.89a373,373,0,0,0-61.63,40.62A452.07,452.07,0,0,0,0,256a432.81,432.81,0,0,0,53.25,50.88,378.14,378.14,0,0,0,61.63,40.5A340,340,0,0,0,183,374.25a278.16,278.16,0,0,0,146,0q8.76-2.42,17.36-5.27L485.1,507.73l22.63-22.63ZM133.88,294.38A124.39,124.39,0,0,0,151,329.25a294.85,294.85,0,0,1-56.75-31.62,432.27,432.27,0,0,1-50-41.63,432.18,432.18,0,0,1,50-41.62A294.36,294.36,0,0,1,151,182.75a124.45,124.45,0,0,0-17.12,34.88,128.16,128.16,0,0,0,0,76.75Z"/></svg>