<svg id="Ebene_1" data-name="Ebene 1" xmlns="http://www.w3.org/2000/svg" viewBox="0 0 512 512"><defs><style>.cls-1{fill:#fff;}</style></defs><title>Search</title><path class="cls-1" d="M512,494.5a18.9,18.9,0,0,1-4.25,12.25Q503.49,512,496,512a15.34,15.34,0,0,1-11.25-4.75l-196.25-196a179.66,179.66,0,0,1-52.62,30.25A175.31,175.31,0,0,1,87.25,328,179.63,179.63,0,0,1,24,264.75a175.53,175.53,0,0,1,0-177.5A179.85,179.85,0,0,1,87.25,24a175.53,175.53,0,0,1,177.5,0A179.63,179.63,0,0,1,328,87.25,174.26,174.26,0,0,1,352,176a172.52,172.52,0,0,1-10.5,59.88,179.89,179.89,0,0,1-30.25,52.62q3.75,3.75,14.38,14.25t25.5,25q14.87,14.5,32.5,31.88t35.5,35.25q17.87,17.87,34.62,34.87T483.5,460.5q13,13.75,20.75,22.88T512,494.5ZM176,320a139.38,139.38,0,0,0,56-11.37A144.88,144.88,0,0,0,308.63,232a143.59,143.59,0,0,0,0-112A144.81,144.81,0,0,0,232,43.38a143.48,143.48,0,0,0-112,0A144.75,144.75,0,0,0,43.38,120a143.48,143.48,0,0,0,0,112A144.81,144.81,0,0,0,120,308.63,139.35,139.35,0,0,0,176,320Z"/></svg>