<svg id="Ebene_1" data-name="Ebene 1" xmlns="http://www.w3.org/2000/svg" viewBox="0 0 384 335.25"><defs><style>.cls-1{fill:#fff;}</style></defs><rect class="cls-1" y="240.13" width="68.75" height="95.13"/><path class="cls-1" d="M233.19,240.13A35.25,35.25,0,0,1,200,287.25H144v-22.5h56a12.74,12.74,0,0,0,4.6-24.62H91.25v95.12h127.3l99.56-47.7a37.2,37.2,0,0,0,18.46-47.42Zm0,0"/><path class="cls-1" d="M384,217.62V195.13H362a171.32,171.32,0,0,0-158.75-150V22.5H224V0H160V22.5h20.75V45.12A171.32,171.32,0,0,0,22,195.13H0v22.49Zm-73.77-35.79-21.62,6.24A100.3,100.3,0,0,0,232.5,124l9.08-20.59a122.79,122.79,0,0,1,68.65,78.47Zm0,0"/></svg>