<svg id="Ebene_1" data-name="Ebene 1" xmlns="http://www.w3.org/2000/svg" xmlns:xlink="http://www.w3.org/1999/xlink" viewBox="0 0 384 320"><defs><style>.cls-1{fill:none;}.cls-2{fill:#fff;}.cls-3{clip-path:url(#clip-path);}</style><clipPath id="clip-path"><rect class="cls-1" width="384" height="320"/></clipPath></defs><path class="cls-2" d="M88,208c-17.54,0-63.49-1.87-88-19.43V192c0,25.25,55.31,32,88,32s88-6.73,88-32v-3.43C151.49,206.13,105.53,208,88,208Zm0,0"/><path class="cls-2" d="M88,144c-17.54,0-63.47-1.87-88-19.42V128c0,25.27,55.31,32,88,32s88-6.73,88-32v-3.42C151.49,142.11,105.53,144,88,144Zm0,0"/><path class="cls-2" d="M88,112c-17.54,0-63.47-1.87-88-19.42V96c0,25.27,55.31,32,88,32s88-6.73,88-32V92.56C151.49,110.11,105.53,112,88,112Zm0,0"/><path class="cls-2" d="M88,176c-17.54,0-63.47-1.87-88-19.42V160c0,25.27,55.31,32,88,32s88-6.73,88-32v-3.42C151.49,174.11,105.53,176,88,176Zm0,0"/><g class="cls-3"><path class="cls-2" d="M88,272c-17.54,0-63.49-1.87-88-19.43V256c0,22,45.62,32,88,32s88-10,88-32v-3.42C151.49,270.11,105.53,272,88,272Zm0,0"/><path class="cls-2" d="M88,0C45.62,0,0,10,0,32,0,57.25,55.31,64,88,64s88-6.73,88-32c0-22-45.62-32-88-32Zm0,0"/></g><path class="cls-2" d="M88,240c-17.54,0-63.49-1.87-88-19.43V224c0,25.25,55.31,32,88,32s88-6.73,88-32v-3.43C151.49,238.13,105.53,240,88,240Zm0,0"/><path class="cls-2" d="M88,80C70.46,80,24.53,78.11,0,60.56V64C0,89.25,55.31,96,88,96s88-6.73,88-32V60.56C151.49,78.11,105.53,80,88,80Zm0,0"/><path class="cls-2" d="M296,240c-17.54,0-63.47-1.87-88-19.42V224c0,25.27,55.31,32,88,32s88-6.73,88-32v-3.42C359.49,238.11,313.53,240,296,240Zm0,0"/><path class="cls-2" d="M296,272c-17.54,0-63.49-1.87-88-19.43V256c0,25.25,55.31,32,88,32s88-6.73,88-32v-3.42C359.49,270.13,313.53,272,296,272Zm0,0"/><path class="cls-2" d="M296,304c-17.54,0-63.49-1.87-88-19.43V288c0,22,45.62,32,88,32s88-10,88-32v-3.42C359.49,302.11,313.53,304,296,304Zm0,0"/><path class="cls-2" d="M296,160c-42.38,0-88,10-88,32,0,25.25,55.31,32,88,32s88-6.73,88-32c0-22-45.62-32-88-32Zm0,0"/></svg>